{"title":"The Lego Movie 2014 CAM XViD-reloder7","uid":9600806,"size":1497846854,"categoryP":"video","categoryS":"movies","magnet":"?xt=urn:btih:4586ec679849d6c3ae346ef5e97094d1da6b2e97&amp;dn=The+Lego+Movie+2014+CAM+XViD-reloder7&amp;tr=udp%3A%2F%2Ftracker.openbittorrent.com%3A80&amp;tr=udp%3A%2F%2Fopen.demonii.com%3A1337&amp;tr=udp%3A%2F%2Ftracker.coppersurfer.tk%3A6969&amp;tr=udp%3A%2F%2Fexodus.desync.com%3A6969","seeders":1,"leechers":0,"uploader":"reloader786","files":2,"time":1392109258,"description":"Get newest releases at &lt;a href=&quot; http://www.extratorrent.me&quot; rel=&quot;nofollow&quot; target=&quot;_NEW&quot;&gt; http://www.extratorrent.me&lt;/a&gt;\n\n\n-------------------------------------------------------------------------------\n\n\n\nThe.Lego.Movie..2014.CAM.XViD-BL4CKP34RL\n****************************************************\n\nRipper ...........: J4CKSP4RR0W IMDB Rating.......: 8.8/10\nVideo Codec.......: XViD Release Date......: 9 February 2014\nAudio Codec.......: mp3 Theatre Date......: 7 February 2014\nAudio Bitrate.....: 128 kbps Runtime...........: 1hr 33min 5sec\nSubtitles.........: na Language..........: ENGLISH\nResolution........: 720x320 IMDb URL..........: http://www.imdb.com/title/tt1490017/\n\n\nDETAILS:\n\n\nFormat : AVI\nFormat/Info : Audio Video Interleave\nFile size : 1.37 GiB\nDuration : 1h 33mn\nOverall bit rate : 2 109 Kbps\nWriting application : Lavf52.84.0\nWriting library : VirtualDub build 32839/release\n\nVideo\nID : 0\nFormat : MPEG-4 Visual\nFormat profile : Advanced Simple@L5\nFormat settings, BVOP : 2\nFormat settings, QPel : Yes\nFormat settings, GMC : No warppoints\nFormat settings, Matrix : Default (H.263)\nMuxing mode : Packed bitstream\nCodec ID : XVID\nCodec ID/Hint : XviD\nDuration : 1h 33mn\nBit rate : 1 970 Kbps\nWidth : 720 pixels\nHeight : 320 pixels\nDisplay aspect ratio : 2.25:1\nFrame rate : 29.970 fps\nColor space : YUV\nChroma subsampling : 4:2:0\nBit depth : 8 bits\nScan type : Progressive\nCompression mode : Lossy\nBits/(Pixel*Frame) : 0.285\nStream size : 1.28 GiB (93%)\nWriting library : XviD 64\n\nAudio\nID : 1\nFormat : MPEG Audio\nFormat version : Version 1\nFormat profile : Layer 3\nCodec ID : 55\nCodec ID/Hint : MP3\nDuration : 1h 32mn\nBit rate mode : Constant\nBit rate : 128 Kbps\nChannel(s) : 1 channel\nSampling rate : 44.1 KHz\nCompression mode : Lossy\nStream size : 84.7 MiB (6%)\nAlignment : Split accross interleaves\nInterleave, duration : 34 ms (1.01 video frame)\nWriting library : LAME3.99r\nEncoding settings : -m m -V 4 -q 2 -lowpass 20.5 -b 128\n\n &lt;a href=&quot;\nhttp://i.imgur.com/swAxeuC.jpg&quot; rel=&quot;nofollow&quot; target=&quot;_NEW&quot;&gt;\nhttp://i.imgur.com/swAxeuC.jpg&lt;/a&gt; &lt;a href=&quot;\nhttp://i.imgur.com/OmXcZeU.jpg&quot; rel=&quot;nofollow&quot; target=&quot;_NEW&quot;&gt;\nhttp://i.imgur.com/OmXcZeU.jpg&lt;/a&gt; &lt;a href=&quot;\nhttp://i.imgur.com/chAlCGX.jpg&quot; rel=&quot;nofollow&quot; target=&quot;_NEW&quot;&gt;\nhttp://i.imgur.com/chAlCGX.jpg&lt;/a&gt; &lt;a href=&quot;\nhttp://i.imgur.com/3hx1omF.jpg&quot; rel=&quot;nofollow&quot; target=&quot;_NEW&quot;&gt;\nhttp://i.imgur.com/3hx1omF.jpg&lt;/a&gt;\n","torrent":{"xt":"urn:btih:4586ec679849d6c3ae346ef5e97094d1da6b2e97","amp;dn":"The+Lego+Movie+2014+CAM+XViD-reloder7","amp;tr":["udp%3A%2F%2Ftracker.openbittorrent.com%3A80","udp%3A%2F%2Fopen.demonii.com%3A1337","udp%3A%2F%2Ftracker.coppersurfer.tk%3A6969","udp%3A%2F%2Fexodus.desync.com%3A6969"],"infoHash":"4586ec679849d6c3ae346ef5e97094d1da6b2e97","infoHashBuffer":{"type":"Buffer","data":[69,134,236,103,152,73,214,195,174,52,110,245,233,112,148,209,218,107,46,151]},"announce":[],"urlList":[]}}